<svg width="438" height="438" viewBox="0 0 438 438" fill="none" xmlns="http://www.w3.org/2000/svg">
<g filter="url(#filter0_d_94_585)">
<path d="M355.934 0.742386C319.794 6.26382 294.696 37.7432 297.565 74.027C299.859 102.853 319.937 126.588 348.835 134.548C355.146 136.269 370.347 136.699 377.446 135.336C386.123 133.687 394.799 130.245 402.114 125.513C438.039 102.28 444.062 52.8017 414.806 21.7525C405.556 11.9287 392.577 4.47115 380.171 1.74628C373.933 0.455551 361.456 -0.118103 355.934 0.742386ZM381.749 3.61066C404.121 9.41893 421.976 26.4135 428.932 48.4276C439.688 82.4884 421.331 119.274 387.629 131.177C378.737 134.261 372.857 135.121 362.316 134.619C346.182 133.974 333.992 129.17 321.228 118.414C312.623 111.171 303.588 96.7581 300.792 85.6435C296.131 67.2865 299.357 46.9934 309.468 31.7915C313.125 26.1984 321.228 17.7369 326.534 13.9365C334.566 8.27162 345.68 3.75407 355.361 2.17653C361.743 1.17262 375.152 1.88969 381.749 3.61066Z" fill="#4AB96A"/>
<path d="M339.513 8.55848C337.792 10.4229 336.932 14.0082 336.932 19.0277C336.932 29.7838 341.88 39.6793 354.428 54.0924L357.942 58.1797L356.436 59.7573C354.572 61.6934 352.707 66.0675 352.707 68.3621C352.707 70.0114 352.349 70.1548 346.11 70.9436C336.43 72.1626 326.821 74.9592 318.431 78.9748C310.4 82.847 303.947 88.1533 303.947 90.9499C303.947 94.8937 309.755 97.1884 318.36 96.6147C327.682 95.9693 335.856 91.882 347.831 81.9148L354.93 75.8914L357.368 77.7558C358.731 78.7597 361.384 79.9787 363.392 80.4806C367.479 81.4128 366.977 80.4089 368.555 91.4518C370.562 106.223 379.741 125.871 386.051 128.883C388.274 129.958 388.633 129.958 390.21 128.883C392.863 127.162 393.795 123.433 393.437 115.904C392.935 105.506 389.278 97.9054 378.737 85.5718C372.857 78.688 372.857 78.6162 374.148 77.1104C376.084 75.0309 377.088 72.7363 377.661 69.366L378.163 66.4261L385.262 65.4939C395.086 64.2748 404.121 61.6217 412.654 57.391C421.403 53.1603 426.781 48.4276 426.422 45.4159C425.848 40.1096 414.806 38.1735 403.978 41.472C397.668 43.4081 388.489 49.3598 380.458 56.7456L375.582 61.1914L373.646 59.3271C371.351 57.1758 368.483 55.9568 365.615 55.9568C363.75 55.9568 363.607 55.7417 363.105 52.1564C362.244 45.0574 360.595 36.8111 359.089 32.2218C355.002 19.6014 346.899 7.19605 342.74 7.19605C341.593 7.19605 340.23 7.76971 339.513 8.55848ZM369.774 59.5422C377.016 62.8407 377.088 73.3816 369.917 77.1104C365.328 79.4767 358.946 77.6123 356.651 73.2382C354.859 69.7246 355.217 65.0636 357.512 62.3388C359.519 59.9724 362.818 58.1797 365.256 58.1797C366.045 58.1797 368.053 58.7534 369.774 59.5422Z" fill="#4AB96A"/>
<path d="M360.524 63.7729C355.791 68.5056 360.309 76.4651 366.906 74.9592C369.774 74.3856 371.423 72.3778 371.853 68.9358C372.212 66.4261 371.997 65.7807 370.061 63.8446C367.049 60.9047 363.464 60.833 360.524 63.7729Z" fill="#4AB96A"/>
<path d="M350.915 82.2017C341.521 90.6631 330.98 96.7582 323.021 98.264C319.149 98.9811 318.001 99.5548 315.42 102.208L312.336 105.363L314.129 107.729C316.711 111.1 322.519 116.908 325.746 119.418L328.399 121.425L346.684 103.212C356.723 93.1728 364.826 84.4963 364.754 83.9226C364.611 83.349 363.535 82.7036 362.245 82.4168C361.025 82.2017 358.803 81.2695 357.368 80.409C355.934 79.6202 354.715 78.9032 354.644 78.9032C354.572 78.9749 352.923 80.409 350.915 82.2017Z" fill="#4AB96A"/>
<path d="M61.7921 1.45944C54.5497 2.82187 44.5824 6.47893 38.3439 10.2077C17.5489 22.5413 4.92847 44.6988 4.92847 68.864C4.92847 87.0776 11.7406 103.499 24.6479 116.549C38.6308 130.675 56.6292 137.774 75.9184 136.771C88.3954 136.054 98.0759 133.185 108.115 127.09C129.627 114.111 142.606 89.3723 140.885 64.9919C139.379 43.1212 128.049 23.4735 110.409 11.9287C99.1515 4.54285 89.1125 1.45944 75.2013 1.10091C69.895 0.957489 63.8716 1.10091 61.7921 1.45944ZM90.2598 4.32773C114.64 11.2833 131.133 28.4213 138.017 53.8056C140.024 61.1197 139.809 76.6084 137.658 84.9981C131.491 108.805 113.995 126.588 89.8296 133.544C84.9535 134.906 82.5872 135.121 72.6916 135.121C62.3658 135.05 60.5731 134.835 54.9083 133.185C32.1054 126.23 15.7562 109.952 8.80065 87.1493C7.00797 81.2694 6.79285 79.6201 6.79285 69.2226C6.72114 54.0924 8.58552 46.9934 16.0431 34.0144C20.2021 26.8437 31.6035 15.5857 39.1327 11.2833C45.2995 7.69795 55.1234 4.11259 61.6487 2.96529C68.1741 1.74628 84.093 2.53505 90.2598 4.32773Z" fill="#4AB96A"/>
<path d="M47.2356 9.20387C43.7219 12.7175 43.5068 22.8999 46.7336 31.5047C49.3151 38.4603 52.9004 43.9818 61.1467 53.3754C64.7321 57.4627 65.3057 58.4666 64.5887 59.4705C61.6487 63.4144 60.8599 65.207 60.8599 67.6451C60.8599 70.7285 61.2184 70.5851 52.255 71.7324C40.0649 73.3099 27.6595 77.6124 19.2698 83.2772C12.1708 88.0099 10.3781 91.0216 12.8162 94.1767C16.1864 98.4074 29.0937 98.3357 38.3439 94.0333C44.2239 91.3084 49.817 87.4362 56.9877 81.1977L62.8677 76.1065L64.1584 77.6124C65.8794 79.5484 69.5364 81.0543 72.333 81.0543C74.9145 81.0543 74.7711 80.7675 75.9184 89.6591C77.1374 99.2679 79.6471 107.442 84.1647 116.549C90.4032 129.17 96.068 133.257 99.51 127.592C102.522 122.644 101.948 111.96 98.2193 103.642C95.5661 97.9054 91.6939 92.2406 85.4554 84.9982L80.4359 79.1899L82.5154 76.6802C83.8778 75.0309 84.81 72.808 85.0969 70.5851L85.5988 67.1431L92.411 66.2109C106.466 64.2031 118.441 59.9724 127.476 53.8773C132.352 50.5071 134.001 48.571 134.001 45.8461C134.001 43.2647 132.137 41.8306 127.547 40.8267C116.289 38.3886 103.095 43.8383 88.7539 56.6739C85.1686 59.829 83.3759 61.048 82.7305 60.5461C79.0735 57.8929 77.7827 57.2476 74.7711 56.8173L71.3291 56.3154L70.1101 48.4276C69.4647 44.0535 68.3891 38.532 67.7438 36.094C64.8755 25.1228 57.7765 11.9287 53.0438 8.84533C49.9604 6.76582 49.6736 6.76582 47.2356 9.20387ZM77.3525 59.9007C85.7422 64.2748 84.093 76.8236 74.8428 78.6163C71.3291 79.2616 69.1062 78.5445 66.0228 75.6763C63.5131 73.4534 63.3696 73.0231 63.3696 69.0075C63.3696 65.709 63.7282 64.3466 64.8038 63.1275C68.4608 59.0402 73.2652 57.7495 77.3525 59.9007Z" fill="#4AB96A"/>
<path d="M70.1819 62.9842C67.2419 64.4183 65.5209 67.5017 66.238 70.0832C68.1024 77.5407 79.5038 76.8236 79.5038 69.2227C79.5038 65.709 78.4282 63.9163 75.5599 62.6973C72.5482 61.4783 73.1935 61.4783 70.1819 62.9842Z" fill="#4AB96A"/>
<path d="M87.3916 70.5133C87.3916 71.4455 86.5311 73.8119 85.5272 75.8914L83.6628 79.6201L88.4672 85.1416C96.7135 94.822 103.095 106.797 103.167 112.82C103.167 114.9 108.33 121.21 109.979 121.21C111.557 121.21 118.728 114.9 122.528 110.239L126.113 105.793L107.685 87.3645C97.5023 77.1821 88.754 68.8641 88.3238 68.8641C87.8218 68.8641 87.3916 69.5811 87.3916 70.5133Z" fill="#4AB96A"/>
<path d="M127.906 112.677C126.759 114.255 123.245 118.055 120.09 120.924L114.354 126.302L126.257 138.277C139.523 151.686 139.451 151.471 144.327 168.322C150.207 188.543 152.287 206.183 151.139 224.468C150.064 241.893 146.837 256.665 140.67 273.014L138.089 280.041L126.257 292.016L114.354 303.992L116.505 305.569C119.373 307.792 127.763 316.182 129.197 318.405L130.416 320.197L141.746 308.868C156.159 294.455 158.453 293.307 184.555 287.284C208.218 281.762 227.651 281.332 249.808 285.778C260.779 288.001 269.456 290.511 278.491 294.096C285.088 296.749 286.164 297.466 291.542 302.844L297.493 308.724L298.641 306.932C299.286 305.928 302.8 302.199 306.528 298.614L313.197 292.16L308.106 287.14C304.162 283.268 302.441 280.902 300.29 276.241C296.346 267.851 292.115 254.729 289.821 243.686C288.028 234.866 287.885 232.786 287.885 216.939C287.813 191.412 290.323 178.002 299.644 153.12C301.079 149.32 302.656 147.455 312.767 137.201L324.24 125.656L321.443 123.29C317.571 119.991 311.691 114.111 309.755 111.602L308.178 109.45L296.203 121.354C284.729 132.827 284.012 133.401 278.634 135.552C240.343 150.61 198.538 150.539 160.174 135.48L153.004 132.612L141.459 121.139L129.986 109.666L127.906 112.677ZM234.965 157.781C248.302 161.51 260.708 170.473 268.595 182.161C271.75 186.822 273.4 190.336 275.694 197.22C277.63 202.956 277.774 204.032 277.774 214.788C277.774 227.122 277.2 230.277 273.113 239.24C262.285 263.334 235.538 277.532 209.58 272.942C197.677 270.863 187.997 265.987 179.033 257.525C165.911 245.12 160.031 230.635 160.748 212.278C160.963 204.606 161.393 202.311 163.329 196.574C166.269 187.754 170.357 181.014 176.595 174.489C185.989 164.593 197.462 158.426 210.369 156.347C216.751 155.415 228.87 156.06 234.965 157.781Z" fill="#4AB96A"/>
<path d="M214.456 159.86L211.373 160.291L231.164 180.01C241.992 190.838 251.242 199.801 251.601 199.945C252.461 200.231 252.605 171.477 251.744 170.258C250.812 168.967 244.215 165.238 239.41 163.374C232.025 160.434 221.197 158.928 214.456 159.86Z" fill="#4AB96A"/>
<path d="M202.123 162.37C195.956 164.521 190.937 167.103 186.634 170.401C182.475 173.485 177.025 178.648 177.025 179.436C177.025 179.723 188.355 180.01 202.123 180.01C215.962 180.01 227.22 179.795 227.22 179.436C227.22 178.361 208.863 160.649 207.859 160.721C207.286 160.721 204.704 161.51 202.123 162.37Z" fill="#4AB96A"/>
<path d="M254.182 172.768C253.537 173.772 253.823 222.245 254.469 222.676C254.756 222.819 259.201 218.732 264.364 213.497L273.758 203.96L272.467 199.658C270.603 193.491 268.523 189.117 264.938 183.739C261.137 178.074 254.827 171.62 254.182 172.768Z" fill="#4AB96A"/>
<path d="M174.014 183.38C171.719 186.033 169.138 191.34 166.915 197.937C164.907 203.96 164.62 205.681 164.548 213.139C164.477 217.728 164.692 221.744 165.05 222.03C165.481 222.532 177.025 211.131 201.621 185.89L205.278 182.161H190.22C176.739 182.161 174.946 182.305 174.014 183.38Z" fill="#4AB96A"/>
<path d="M174.587 215.864C165.695 224.755 165.337 225.185 165.767 227.552C166.341 231.352 170.285 240.674 173.009 244.833C176.38 249.853 183.479 257.525 184.267 257.023C185.056 256.593 185.128 207.474 184.339 206.972C184.052 206.828 179.678 210.772 174.587 215.864Z" fill="#4AB96A"/>
<path d="M253.035 227.48L233.315 247.415H248.804H264.221L266.803 242.897C272.252 233.647 274.762 224.11 274.404 214.143C274.26 210.557 273.902 207.689 273.471 207.617C273.113 207.546 263.863 216.509 253.035 227.48Z" fill="#4AB96A"/>
<path d="M186.347 244.044C186.276 260.967 185.774 259.677 194.881 264.266C202.553 268.066 209.652 269.716 218.759 269.859C222.99 269.931 226.647 269.716 226.934 269.429C227.436 268.998 187.925 229.488 186.921 229.488C186.634 229.488 186.419 236.013 186.347 244.044Z" fill="#4AB96A"/>
<path d="M211.445 250.139C211.445 250.426 215.604 254.8 220.695 259.892L230.017 269.214L234.391 267.995C239.626 266.489 247.944 262.473 251.959 259.39C255.688 256.593 261.64 250.857 261.64 250.139C261.64 249.853 250.382 249.566 236.542 249.566C222.775 249.566 211.445 249.781 211.445 250.139Z" fill="#4AB96A"/>
<path d="M346.899 281.834C323.451 284.631 302.584 299.617 292.76 320.914C288.099 331.097 287.095 335.973 287.095 349.597C287.095 360.138 287.311 362.576 288.745 367.524C294.625 388.104 310.329 405.529 329.761 412.986C345.322 419.01 363.679 419.01 379.239 412.986C407.492 402.087 425.562 372.543 422.263 342.57C418.678 310.373 393.867 285.491 361.814 281.906C354.285 281.045 353.855 281.045 346.899 281.834ZM364.181 283.555C372.57 284.846 380.817 287.714 388.274 291.945C396.377 296.462 407.778 308.007 412.439 316.253C429.721 347.159 420.757 385.236 391.644 405.027C373.933 417.074 349.194 419.655 329.761 411.48C312.623 404.31 300.146 391.976 292.975 375.197C282.435 350.458 288.601 320.556 308.106 301.769C318.503 291.801 330.406 285.778 344.103 283.627C352.205 282.408 356.078 282.336 364.181 283.555Z" fill="#4AB96A"/>
<path d="M328.829 289.578C326.893 291.658 326.176 294.598 326.176 299.976C326.176 310.947 329.833 318.763 341.449 332.674L347.114 339.343L345.608 340.921C343.816 342.857 341.951 347.159 341.951 349.525C341.951 351.103 341.593 351.318 338.581 351.748C325.674 353.326 315.993 356.051 306.098 360.927C299.572 364.082 293.19 369.532 293.19 371.898C293.19 375.842 297.349 377.921 305.381 377.921C316.352 377.921 327.108 372.543 340.159 360.568L344.102 356.983L346.254 358.847C348.333 360.568 352.42 362.146 355.002 362.146C355.862 362.146 356.364 362.863 356.579 364.44C358.874 380.861 360.954 388.104 366.188 398.286C370.275 406.317 374.65 411.122 377.518 410.763C378.593 410.62 380.099 409.688 380.96 408.54C382.251 406.748 382.466 405.529 382.466 398.501C382.394 391.833 382.107 389.753 380.745 386.311C378.593 380.79 371.925 370.966 366.332 364.799L361.814 359.923L363.32 358.345C365.184 356.338 367.049 352.035 367.049 349.669C367.049 347.733 367.551 347.518 375.295 346.729C392.791 344.793 416.455 333.033 415.666 326.579C415.523 325.504 414.59 323.998 413.443 323.137C411.65 321.847 410.431 321.631 403.404 321.631C396.735 321.703 394.656 321.99 391.214 323.352C385.908 325.432 378.163 330.595 370.706 337.12L364.754 342.211L363.176 340.705C361.24 338.913 356.938 337.048 354.572 337.048C352.994 337.048 352.779 336.69 352.349 333.248C350.126 315.034 344.246 299.402 336.86 291.658C333.346 288.001 330.837 287.355 328.829 289.578ZM357.01 339.917C364.897 342.14 367.049 351.677 360.882 357.055C358.874 358.847 357.798 359.278 355.002 359.278C350.771 359.278 348.548 358.13 346.397 354.975C342.883 349.741 345.68 341.709 351.632 339.988C354.5 339.128 354.213 339.128 357.01 339.917Z" fill="#4AB96A"/>
<path d="M350.341 344.219C346.684 347.087 347.258 353.254 351.345 355.334C354.429 356.983 356.867 356.624 359.233 354.33C365.185 348.378 356.938 339.056 350.341 344.219Z" fill="#4AB96A"/>
<path d="M313.484 299.689C309.97 302.414 304.735 307.935 302.656 311.09C301.58 312.74 301.867 313.098 319.794 331.025C329.833 341.064 338.366 349.239 338.796 349.239C339.298 349.239 340.015 347.876 340.445 346.155C340.876 344.434 341.88 342.14 342.74 341.064L344.318 339.128L342.166 336.833C333.418 327.583 326.104 315.249 324.67 307.29C323.953 303.776 323.307 302.414 320.941 299.904C319.292 298.255 317.786 296.892 317.499 296.892C317.212 296.892 315.42 298.111 313.484 299.689Z" fill="#4AB96A"/>
<path d="M62.0788 294.024C38.1286 298.04 18.0507 315.034 9.23071 338.769C5.78877 347.804 4.56975 363.006 6.43413 373.332C12.6009 408.253 45.5862 432.921 80.7226 428.905C112.13 425.32 136.152 401.943 140.885 370.464C146.263 334.754 120.52 299.904 84.5231 294.096C79.1451 293.235 67.17 293.235 62.0788 294.024ZM91.9089 297.179C111.27 302.988 127.117 316.827 134.718 334.754C141.315 350.314 141.889 368.815 136.152 384.232C125.826 411.982 98.6494 429.766 69.5363 427.901C52.1115 426.754 36.9813 419.583 24.7911 406.604C-5.75606 374.121 3.85268 321.488 44.0086 301.41C54.191 296.319 62.0071 294.67 75.2012 295.028C83.8777 295.243 86.6743 295.602 91.9089 297.179Z" fill="#4AB96A"/>
<path d="M48.2397 300.836C44.6543 303.346 44.0807 316.11 47.2358 324.356C49.2436 329.734 55.8406 339.63 61.5055 345.797C65.5928 350.243 66.7401 352.107 65.2342 352.107C64.0869 352.107 62.0074 355.979 61.2186 359.636C60.4299 363.006 60.2865 363.222 57.9201 363.437C46.7338 364.369 31.8188 368.743 22.712 373.834C8.15545 382.009 8.94423 389.753 24.2895 389.61C35.6192 389.538 44.9412 384.877 59.3543 371.97L63.2264 368.528L65.0908 370.321C67.3137 372.4 70.182 373.619 73.122 373.619C74.2693 373.619 75.2015 373.834 75.2015 374.049C75.2015 376.774 77.8547 390.829 79.2171 395.705C83.0176 408.899 91.479 422.38 95.8531 422.38C98.3629 422.38 99.1517 421.806 100.658 418.866C101.661 416.787 101.877 415.137 101.59 409.186C101.016 398.071 97.9326 391.618 86.6746 378.28L80.7947 371.324L82.5873 369.46C84.7385 367.237 85.9576 364.297 85.9576 361.501C85.9576 359.565 86.0293 359.493 92.7697 358.632C103.024 357.27 111.987 354.617 120.735 350.386C133.571 344.148 137.873 338.052 131.993 334.682C128.623 332.746 121.237 332.316 115.142 333.75C107.111 335.614 101.159 339.056 90.1883 348.307L83.8781 353.613L80.7947 351.462C79.0737 350.243 76.4922 349.167 75.0581 349.024C73.5523 348.88 72.1898 348.593 72.0464 348.45C71.903 348.307 71.3293 345.438 70.8991 342.14C68.8196 326.794 62.1508 309.872 55.5538 302.988C52.327 299.617 50.6777 299.116 48.2397 300.836ZM78.5717 352.824C83.2327 355.621 84.6668 360.353 82.4439 365.373C81.2966 367.954 80.3644 368.958 77.9264 370.034C76.2054 370.823 74.1976 371.468 73.4805 371.468C71.0425 371.468 66.2381 368.743 64.9474 366.52C63.4416 363.939 63.3699 359.206 64.804 356.338C67.242 351.748 73.9825 349.956 78.5717 352.824Z" fill="#4AB96A"/>
<path d="M70.2537 355.262C64.2303 358.632 66.525 367.882 73.4088 367.882C78.4283 367.882 81.7986 362.218 79.5039 357.772C78.6435 356.194 75.1298 354.258 73.2654 354.258C72.5484 354.33 71.1859 354.76 70.2537 355.262Z" fill="#4AB96A"/>
<path d="M91.8375 326.508C81.9419 336.403 73.7673 345.008 73.7673 345.438C73.7673 345.94 75.1298 346.657 76.779 347.159C78.5 347.589 80.7229 348.593 81.8702 349.382L83.878 350.816L87.9653 347.303C98.5063 338.196 106.537 333.535 114.64 331.67C119.086 330.595 120.52 329.878 123.102 327.511C124.751 325.862 126.113 324.356 126.113 324.07C126.113 322.349 111.987 308.366 110.338 308.366C110.123 308.366 101.805 316.54 91.8375 326.508Z" fill="#4AB96A"/>
</g>
<defs>
<filter id="filter0_d_94_585" x="0.928467" y="0.333252" width="436.476" height="437" filterUnits="userSpaceOnUse" color-interpolation-filters="sRGB">
<feFlood flood-opacity="0" result="BackgroundImageFix"/>
<feColorMatrix in="SourceAlpha" type="matrix" values="0 0 0 0 0 0 0 0 0 0 0 0 0 0 0 0 0 0 127 0" result="hardAlpha"/>
<feOffset dy="4"/>
<feGaussianBlur stdDeviation="2"/>
<feComposite in2="hardAlpha" operator="out"/>
<feColorMatrix type="matrix" values="0 0 0 0 0 0 0 0 0 0 0 0 0 0 0 0 0 0 0.25 0"/>
<feBlend mode="normal" in2="BackgroundImageFix" result="effect1_dropShadow_94_585"/>
<feBlend mode="normal" in="SourceGraphic" in2="effect1_dropShadow_94_585" result="shape"/>
</filter>
</defs>
</svg>
